Coordinates
version=1
nRows=13
nColumns=34
inDegrees=yes

Units are S.I. units (second, meters, Newtons, ...)
Angles are in degrees.

endheader
time	pelvis_tilt	pelvis_list	pelvis_rotation	pelvis_tx	pelvis_ty	pelvis_tz	hip_flexion_r	hip_adduction_r	hip_rotation_r	knee_angle_r	ankle_angle_r	subtalar_angle_r	mtp_angle_r	hip_flexion_l	hip_adduction_l	hip_rotation_l	knee_angle_l	socket_flexion	socket_adduction	socket_rotation	socket_tx	socket_ty	socket_tz	pros_ankle_rx	pros_ankle_ry	pros_ankle_rz	pros_ankle_tx	pros_ankle_ty	pros_ankle_tz	foot_flex	lumbar_extension	lumbar_bending	lumbar_rotation
      0.60000000	     -5.12950292	     -2.66397973	      3.39174924	     -0.02449332	      1.00855411	      0.35857065	     28.84525973	      2.08116564	     -2.36269133	      0.91645797	     12.30149963	      0.77297986	     -0.35747450	     -7.08503691	     -4.12013851	     -4.91519665	    -12.09105009	      6.57117118	      0.22884365	      9.39921988	      0.02521097	     -0.01963181	     -0.01538484	      0.00000000	      0.00000000	      0.00000000	      0.00000000	      0.00000000	      0.00000000	     13.56030383	    -14.15277896	     -1.12077259	     -5.39368662
      0.60416667	     -5.15088231	     -2.71592979	      3.54872903	     -0.01837584	      1.00732588	      0.35875063	     28.97636404	      2.11354943	     -2.20218197	      0.74018372	     12.21426917	      0.80088362	     -0.26660053	     -7.29654780	     -4.30053055	     -4.91527788	    -12.21564469	      6.67054478	      0.28913837	      9.53015254	      0.02541336	     -0.01960228	     -0.01575759	      0.00000000	      0.00000000	      0.00000000	      0.00000000	      0.00000000	      0.00000000	     13.64324092	    -14.11551811	     -0.94435902	     -5.46577740
      0.60833333	     -5.18487813	     -2.90310396	      3.69092203	     -0.01215022	      1.00598274	      0.35904131	     29.15026479	      2.29551021	     -2.10050244	      0.46797320	     12.09323212	      0.78069665	      0.12358821	     -7.48123772	     -4.72798279	     -4.99333348	    -12.36632470	      6.75394744	      0.43538486	      9.76665852	      0.02574520	     -0.01977847	     -0.01708160	      0.00000000	      0.00000000	      0.00000000	      0.00000000	      0.00000000	      0.00000000	     13.70243006	    -14.02128227	     -0.63369716	     -5.59528263
      0.61250000	     -5.19239556	     -2.97048030	      3.83414503	     -0.00597377	      1.00481935	      0.35919548	     29.31641302	      2.34973529	     -1.93186033	      0.09362567	     11.86349554	      0.78987438	      0.27798828	     -7.68021638	     -4.87588574	     -4.99036934	    -12.51897112	      6.88482883	      0.44298384	      9.86718093	      0.02609793	     -0.01967409	     -0.01697301	      0.00000000	      0.00000000	      0.00000000	      0.00000000	      0.00000000	      0.00000000	     13.78289209	    -14.02713410	     -0.44223389	     -5.62309920
      0.61666667	     -5.19326596	     -3.08109336	      3.95264731	      0.00024980	      1.00363950	      0.35946784	     29.50851069	      2.46908771	     -1.75184715	     -0.39020611	     11.62203515	      0.73806980	      0.52912551	     -7.88534146	     -5.13932603	     -5.03133367	    -12.68013144	      7.00704037	      0.51576174	     10.00930823	      0.02643444	     -0.01965554	     -0.01752605	      0.00000000	      0.00000000	      0.00000000	      0.00000000	      0.00000000	      0.00000000	     13.83393134	    -13.99981650	     -0.21336325	     -5.65931570
      0.62083333	     -5.17982577	     -3.18328457	      4.07269896	      0.00650413	      1.00252546	      0.35967596	     29.69040695	      2.57805991	     -1.55307333	     -0.92984255	     11.31864524	      0.68995832	      0.71592684	     -8.09296647	     -5.35706533	     -5.05050455	    -12.85108833	      7.15030133	      0.55540839	     10.12234938	      0.02682072	     -0.01958958	     -0.01774752	      0.00000000	      0.00000000	      0.00000000	      0.00000000	      0.00000000	      0.00000000	     13.88473872	    -13.99067904	      0.02978319	     -5.67330788
      0.62500000	     -5.14044309	     -3.27080821	      4.26768002	      0.01290364	      1.00164315	      0.35972616	     29.73188243	      2.64663005	     -1.31720946	     -1.33839847	     11.11846987	      0.71442045	      0.75908294	     -8.30159741	     -5.48446171	     -4.95891001	    -13.02746516	      7.32746909	      0.49522533	     10.22376614	      0.02729656	     -0.01929330	     -0.01708205	      0.00000000	      0.00000000	      0.00000000	      0.00000000	      0.00000000	      0.00000000	     13.89571092	    -13.90184981	      0.13628595	     -5.67128513
      0.62916667	     -5.12308703	     -3.43551190	      4.25263778	      0.01910667	      1.00040142	      0.36028223	     30.10415769	      2.89215273	     -1.16862289	     -2.29142581	     10.55534702	      0.51294280	      0.99784793	     -8.52837259	     -5.85296424	     -5.12532243	    -13.21818219	      7.46849886	      0.65177808	     10.30782811	      0.02753891	     -0.01947772	     -0.01822103	      0.00000000	      0.00000000	      0.00000000	      0.00000000	      0.00000000	      0.00000000	     13.92094982	    -14.02351940	      0.52573259	     -5.69362015
      0.63333333	     -5.22813080	     -3.72721078	      4.28757310	      0.02558345	      0.99896793	      0.36087802	     30.30933389	      3.26798891	     -0.65951260	     -2.66977624	      9.33469637	     -0.63396444	      4.82122272	     -8.43151889	     -6.39719415	     -5.53372256	    -13.64044072	      7.58730838	      0.75516949	     10.76378870	      0.02897193	     -0.01940460	     -0.01938562	      0.00000000	      0.00000000	      0.00000000	      0.00000000	      0.00000000	      0.00000000	     13.91098867	    -13.74943702	      0.93081555	     -5.52823718
      0.63750000	     -5.15569486	     -3.85656266	      4.35396338	      0.03194253	      0.99807850	      0.36116586	     30.52985332	      3.44320512	     -0.51316206	     -3.54830942	      8.85764688	     -0.67486186	      4.85274208	     -8.67107238	     -6.60613423	     -5.54566422	    -13.85729412	      7.78171758	      0.76739584	     10.78482023	      0.02937029	     -0.01933013	     -0.01926492	      0.00000000	      0.00000000	      0.00000000	      0.00000000	      0.00000000	      0.00000000	     13.87749143	    -13.82932899	      1.19055972	     -5.52785705
      0.64166667	     -5.03328326	     -3.95630983	      4.44858231	      0.03828694	      0.99738175	      0.36144170	     30.63393878	      3.58999029	     -0.31212073	     -4.34496766	      8.44033472	     -0.70155313	      4.87746084	     -8.88867230	     -6.78499835	     -5.52248753	    -14.11428944	      8.01890528	      0.77610396	     10.80938461	      0.03015808	     -0.01898300	     -0.01907266	      0.00000000	      0.00000000	      0.00000000	      0.00000000	      0.00000000	      0.00000000	     13.81671062	    -13.77960914	      1.43381678	     -5.51033200
      0.64583333	     -4.99879597	     -4.16781070	      4.41856604	      0.04466666	      0.99632766	      0.36194635	     31.02047358	      3.88772213	     -0.24018559	     -5.48333949	      7.80521811	     -0.90232156	      4.96523225	     -9.10756141	     -7.14895841	     -5.64865025	    -14.34443221	      8.21083644	      0.88092639	     10.83257613	      0.03029380	     -0.01926562	     -0.01973826	      0.00000000	      0.00000000	      0.00000000	      0.00000000	      0.00000000	      0.00000000	     13.74134463	    -13.94545699	      1.77114350	     -5.45894957
      0.65000000	     -4.96142686	     -4.42388212	      4.40671449	      0.05110589	      0.99531228	      0.36260710	     31.34232606	      4.24558464	     -0.13212168	     -6.53637117	      7.25775890	     -1.19270551	      5.17518870	     -9.25824671	     -7.62858375	     -5.75885322	    -14.63177422	      8.43863679	      1.03136731	     10.92275532	      0.03085783	     -0.01941500	     -0.02091653	      0.00000000	      0.00000000	      0.00000000	      0.00000000	      0.00000000	      0.00000000	     13.63526527	    -13.93454699	      2.09443099	     -5.30435883
